<svg width="22" height="15" viewBox="0 0 22 15" fill="none" xmlns="http://www.w3.org/2000/svg">
<g clip-path="url(#clip0_12239_2884)">
<path d="M13.357 0H8.07129C6.96672 0 6.07129 0.89543 6.07129 2V7.28571C6.07129 8.39028 6.96672 9.28571 8.07129 9.28571H13.357C14.4616 9.28571 15.357 8.39028 15.357 7.28571V2C15.357 0.89543 14.4616 0 13.357 0Z" fill="white"/>
<path d="M13.357 10.3572H8.07129C6.96672 10.3572 6.07129 11.2526 6.07129 12.3572V13C6.07129 14.1046 6.96672 15 8.07129 15H13.357C14.4616 15 15.357 14.1046 15.357 13V12.3572C15.357 11.2526 14.4616 10.3572 13.357 10.3572Z" fill="white"/>
<path d="M21.4287 10.5V2C21.4287 0.89543 20.5333 0 19.4287 0L18.7859 0C17.6813 0 16.7859 0.89543 16.7859 2V10.5C16.7859 11.6046 17.6813 12.5 18.7859 12.5H19.4287C20.5333 12.5 21.4287 11.6046 21.4287 10.5Z" fill="white"/>
<path d="M4.64282 10.5L4.64282 2C4.64282 0.89543 3.74739 0 2.64282 0L1.99996 0C0.895393 0 -3.76701e-05 0.89543 -3.76701e-05 2L-3.76701e-05 10.5C-3.76701e-05 11.6046 0.895393 12.5 1.99996 12.5H2.64282C3.74739 12.5 4.64282 11.6046 4.64282 10.5Z" fill="white"/>
</g>
<defs>
<clipPath id="clip0_12239_2884">
<rect width="22" height="15" fill="white"/>
</clipPath>
</defs>
</svg>
