<svg width="32" height="24" viewBox="0 0 32 24" fill="none" xmlns="http://www.w3.org/2000/svg">
<path d="M20.0183 16.6773C20.0183 17.0659 19.6938 17.3864 19.3002 17.3864H12.6998C12.3062 17.3864 11.9817 17.0659 11.9817 16.6773V13.6773V10.3227V7.32273C11.9817 6.93409 12.3062 6.61364 12.6998 6.61364H19.3002C19.6938 6.61364 20.0183 6.92727 20.0183 7.32273V10.3227V13.6773V16.6773ZM10.4835 7.31591V10.3159C10.4835 10.8205 10.1521 11.25 9.76548 11.25H0.5V4.82045C0.5 4.77954 0.506905 4.74545 0.506905 4.70455H9.76548C10.1521 4.70455 10.4835 5.13409 10.4835 5.63864V7.31591ZM0.5 19.1727V12.7432H9.76548C10.1521 12.7432 10.4835 13.1727 10.4835 13.6773V16.6773V18.3545C10.4835 18.8591 10.1521 19.2886 9.76548 19.2886H0.506905C0.506905 19.2477 0.5 19.2136 0.5 19.1727ZM31.5 4.82045V11.25H22.2345C21.8479 11.25 21.5165 10.8205 21.5165 10.3159V7.31591V5.63864C21.5165 5.13409 21.8479 4.70455 22.2345 4.70455H31.4931C31.4931 4.74545 31.5 4.78636 31.5 4.82045ZM21.5234 16.6773V13.6773C21.5234 13.1727 21.8548 12.7432 22.2414 12.7432H31.5V19.1727C31.5 19.2136 31.4931 19.2477 31.4931 19.2886H22.2345C21.8479 19.2886 21.5165 18.8591 21.5165 18.3545V16.6773H21.5234ZM5.3882 0H26.6118C28.7383 0 30.5472 1.35 31.2169 3.225H22.2345C21.1298 3.225 20.2185 4.11136 20.0459 5.26364C19.8111 5.18182 19.5626 5.12727 19.2933 5.12727H12.6929C12.4305 5.12727 12.1751 5.18182 11.9403 5.26364C11.7815 4.11136 10.8702 3.225 9.76548 3.225H0.783074C1.45278 1.35 3.26169 0 5.3882 0ZM26.6118 24H5.3882C3.26169 24 1.45278 22.65 0.783074 20.775H9.76548C10.8702 20.775 11.7815 19.8886 11.9541 18.7364C12.1889 18.8182 12.4374 18.8727 12.7067 18.8727H19.3071C19.5695 18.8727 19.8249 18.8182 20.0597 18.7364C20.2254 19.8886 21.1367 20.775 22.2483 20.775H31.2307C30.5472 22.65 28.7383 24 26.6118 24Z" fill="#FF5524"/>
</svg>
