<svg width="25" height="25" viewBox="0 0 25 25" fill="none" xmlns="http://www.w3.org/2000/svg">
<rect width="25" height="25" rx="12.5" fill="#FF5524"/>
<g clip-path="url(#clip0_12222_2135)">
<path d="M7.85945 7.85939C8.03526 7.68363 8.27367 7.5849 8.52226 7.5849C8.77085 7.5849 9.00927 7.68363 9.18507 7.85939L12.5001 11.1744L15.8151 7.85939C15.9919 7.68861 16.2287 7.59412 16.4745 7.59626C16.7203 7.59839 16.9555 7.69699 17.1293 7.87081C17.3031 8.04463 17.4017 8.27976 17.4038 8.52557C17.406 8.77138 17.3115 9.0082 17.1407 9.18501L13.8257 12.5L17.1407 15.815C17.3115 15.9918 17.406 16.2286 17.4038 16.4745C17.4017 16.7203 17.3031 16.9554 17.1293 17.1292C16.9555 17.303 16.7203 17.4016 16.4745 17.4038C16.2287 17.4059 15.9919 17.3114 15.8151 17.1406L12.5001 13.8256L9.18507 17.1406C9.00826 17.3114 8.77144 17.4059 8.52563 17.4038C8.27983 17.4016 8.04469 17.303 7.87087 17.1292C7.69705 16.9554 7.59845 16.7203 7.59632 16.4745C7.59418 16.2286 7.68867 15.9918 7.85945 15.815L11.1744 12.5L7.85945 9.18501C7.68369 9.00921 7.58496 8.77079 7.58496 8.5222C7.58496 8.27361 7.68369 8.03519 7.85945 7.85939Z" fill="white" stroke="white" stroke-width="0.00064"/>
</g>
<defs>
<clipPath id="clip0_12222_2135">
<rect width="15" height="15" fill="white" transform="translate(5 5)"/>
</clipPath>
</defs>
</svg>
