<svg width="51" height="50" viewBox="0 0 51 50" fill="none" xmlns="http://www.w3.org/2000/svg">
<path d="M19.25 35.4167C21.0216 34.1036 23.1762 33.3334 25.5 33.3334C27.8237 33.3334 29.9783 34.1036 31.75 35.4167" stroke="white" stroke-width="4" stroke-linecap="round"/>
<path d="M31.7501 25C32.9007 25 33.8334 23.6009 33.8334 21.875C33.8334 20.1491 32.9007 18.75 31.7501 18.75C30.5995 18.75 29.6667 20.1491 29.6667 21.875C29.6667 23.6009 30.5995 25 31.7501 25Z" fill="white"/>
<path d="M19.2501 25C20.4007 25 21.3334 23.6009 21.3334 21.875C21.3334 20.1491 20.4007 18.75 19.2501 18.75C18.0995 18.75 17.1667 20.1491 17.1667 21.875C17.1667 23.6009 18.0995 25 19.2501 25Z" fill="white"/>
<path d="M4.66675 25C4.66675 15.1791 4.66675 10.2686 7.71773 7.21767C10.7687 4.16669 15.6791 4.16669 25.5001 4.16669C35.3209 4.16669 40.2315 4.16669 43.2824 7.21767C46.3334 10.2686 46.3334 15.1791 46.3334 25C46.3334 34.8209 46.3334 39.7315 43.2824 42.7823C40.2315 45.8334 35.3209 45.8334 25.5001 45.8334C15.6791 45.8334 10.7687 45.8334 7.71773 42.7823C4.66675 39.7315 4.66675 34.8209 4.66675 25Z" stroke="white" stroke-width="4"/>
</svg>
