<svg width="20" height="20" viewBox="0 0 20 20" fill="none" xmlns="http://www.w3.org/2000/svg">
<path d="M6.36527 14.2192C6.11985 13.9764 5.72413 13.9786 5.4814 14.224C5.23867 14.4694 5.24085 14.8652 5.48626 15.1078L6.36527 14.2192ZM10.9301 9.06992C10.5233 8.66309 10.5233 8.00356 10.9301 7.59677L10.0463 6.71289C9.15125 7.60784 9.15125 9.05884 10.0463 9.95375L10.9301 9.06992ZM12.4033 9.06992C11.9964 9.47667 11.3369 9.47667 10.9301 9.06992L10.0463 9.95375C10.9412 10.8488 12.3922 10.8488 13.2871 9.95375L12.4033 9.06992ZM12.4033 7.59677C12.81 8.00356 12.81 8.66309 12.4033 9.06992L13.2871 9.95375C14.1821 9.05884 14.1821 7.60784 13.2871 6.71289L12.4033 7.59677ZM13.2871 6.71289C12.3922 5.81793 10.9412 5.81793 10.0463 6.71289L10.9301 7.59677C11.3369 7.18997 11.9964 7.18997 12.4033 7.59677L13.2871 6.71289ZM15.3723 4.6277C17.3759 6.6313 17.3759 9.87975 15.3723 11.8834L16.2562 12.7673C18.7479 10.2755 18.7479 6.23558 16.2562 3.74382L15.3723 4.6277ZM16.2562 3.74382C13.7644 1.25206 9.7245 1.25206 7.23274 3.74382L8.11662 4.6277C10.1203 2.6241 13.3687 2.6241 15.3723 4.6277L16.2562 3.74382ZM5.51271 10.115L2.4193 13.2084L3.30319 14.0923L6.3966 10.9989L5.51271 10.115ZM6.79158 17.5807L7.82525 16.547L6.94136 15.6632L5.9077 16.6968L6.79158 17.5807ZM7.82525 16.547L9.88525 14.4871L9.00134 13.6032L6.94136 15.6632L7.82525 16.547ZM1.88638 14.7277L2.07977 16.4682L3.32212 16.3302L3.12873 14.5897L1.88638 14.7277ZM3.53183 17.9203L5.27232 18.1137L5.41035 16.8713L3.66987 16.6779L3.53183 17.9203ZM2.4948 17.3317L2.6683 17.5052L3.5522 16.6213L3.37868 16.4478L2.4948 17.3317ZM3.66987 16.6779C3.62535 16.6729 3.58386 16.653 3.5522 16.6213L2.6683 17.5052C2.90068 17.7375 3.20522 17.8839 3.53183 17.9203L3.66987 16.6779ZM2.07977 16.4682C2.11605 16.7948 2.26242 17.0993 2.4948 17.3317L3.37868 16.4478C3.34701 16.4162 3.32707 16.3747 3.32212 16.3302L2.07977 16.4682ZM5.9077 16.6968C5.77702 16.8275 5.59403 16.8917 5.41035 16.8713L5.27232 18.1137C5.8334 18.176 6.3924 17.9799 6.79158 17.5807L5.9077 16.6968ZM2.4193 13.2084C2.02012 13.6076 1.82404 14.1666 1.88638 14.7277L3.12873 14.5897C3.10833 14.406 3.17251 14.223 3.30319 14.0923L2.4193 13.2084ZM6.77563 9.53717C6.3388 7.83609 6.78677 5.95755 8.11662 4.6277L7.23274 3.74382C5.57768 5.39888 5.02271 7.73668 5.56491 9.84809L6.77563 9.53717ZM15.3723 11.8834C14.0424 13.2133 12.1639 13.6612 10.4628 13.2244L10.1519 14.4351C12.2633 14.9773 14.6012 14.4223 16.2562 12.7673L15.3723 11.8834ZM9.88525 14.4871C9.93175 14.4406 10.027 14.403 10.1519 14.4351L10.4628 13.2244C9.97292 13.0986 9.40375 13.2008 9.00134 13.6032L9.88525 14.4871ZM6.3966 10.9989C6.79881 10.5967 6.90152 10.0274 6.77563 9.53717L5.56491 9.84809C5.59692 9.97267 5.5594 10.0683 5.51271 10.115L6.3966 10.9989ZM7.8228 15.6608L6.36527 14.2192L5.48626 15.1078L6.9438 16.5494L7.8228 15.6608Z" fill="#333333"/>
</svg>
