<svg width="23" height="16" viewBox="0 0 23 16" fill="none" xmlns="http://www.w3.org/2000/svg">
<g clip-path="url(#clip0_12239_3144)">
<path d="M13.857 0.666748H8.57129C7.46672 0.666748 6.57129 1.56218 6.57129 2.66675V7.95246C6.57129 9.05703 7.46672 9.95246 8.57129 9.95246H13.857C14.9616 9.95246 15.857 9.05703 15.857 7.95246V2.66675C15.857 1.56218 14.9616 0.666748 13.857 0.666748Z" fill="#FF5524"/>
<path d="M13.857 11.0239H8.57129C7.46672 11.0239 6.57129 11.9194 6.57129 13.0239V13.6668C6.57129 14.7714 7.46672 15.6668 8.57129 15.6668H13.857C14.9616 15.6668 15.857 14.7714 15.857 13.6668V13.0239C15.857 11.9194 14.9616 11.0239 13.857 11.0239Z" fill="#FF5524"/>
<path d="M21.9287 11.1667V2.66675C21.9287 1.56218 21.0333 0.666748 19.9287 0.666748H19.2859C18.1813 0.666748 17.2859 1.56218 17.2859 2.66675V11.1667C17.2859 12.2713 18.1813 13.1667 19.2859 13.1667H19.9287C21.0333 13.1667 21.9287 12.2713 21.9287 11.1667Z" fill="#FF5524"/>
<path d="M5.14258 11.1667L5.14258 2.66675C5.14258 1.56218 4.24715 0.666748 3.14258 0.666748H2.49972C1.39515 0.666748 0.499718 1.56218 0.499718 2.66675L0.499718 11.1667C0.499718 12.2713 1.39515 13.1667 2.49972 13.1667H3.14258C4.24715 13.1667 5.14258 12.2713 5.14258 11.1667Z" fill="#FF5524"/>
</g>
<defs>
<clipPath id="clip0_12239_3144">
<rect width="22" height="15" fill="white" transform="translate(0.5 0.666748)"/>
</clipPath>
</defs>
</svg>
