<svg width="22" height="16" viewBox="0 0 22 16" fill="none" xmlns="http://www.w3.org/2000/svg">
<g clip-path="url(#clip0_12239_3088)">
<path d="M13.357 0.333252H8.07129C6.96672 0.333252 6.07129 1.22868 6.07129 2.33325V7.61896C6.07129 8.72353 6.96672 9.61896 8.07129 9.61896H13.357C14.4616 9.61896 15.357 8.72353 15.357 7.61896V2.33325C15.357 1.22868 14.4616 0.333252 13.357 0.333252Z" fill="#333333"/>
<path d="M13.357 10.6904H8.07129C6.96672 10.6904 6.07129 11.5859 6.07129 12.6904V13.3333C6.07129 14.4379 6.96672 15.3333 8.07129 15.3333H13.357C14.4616 15.3333 15.357 14.4379 15.357 13.3333V12.6904C15.357 11.5859 14.4616 10.6904 13.357 10.6904Z" fill="#333333"/>
<path d="M21.4287 10.8333V2.33325C21.4287 1.22868 20.5333 0.333252 19.4287 0.333252L18.7859 0.333252C17.6813 0.333252 16.7859 1.22868 16.7859 2.33325V10.8333C16.7859 11.9378 17.6813 12.8333 18.7859 12.8333H19.4287C20.5333 12.8333 21.4287 11.9378 21.4287 10.8333Z" fill="#333333"/>
<path d="M4.64258 10.8333L4.64258 2.33325C4.64258 1.22868 3.74715 0.333252 2.64258 0.333252L1.99972 0.333252C0.895149 0.333252 -0.000281811 1.22868 -0.000281811 2.33325L-0.000281811 10.8333C-0.000281811 11.9378 0.895149 12.8333 1.99972 12.8333H2.64258C3.74715 12.8333 4.64258 11.9378 4.64258 10.8333Z" fill="#333333"/>
</g>
<defs>
<clipPath id="clip0_12239_3088">
<rect width="22" height="15" fill="white" transform="translate(0 0.333252)"/>
</clipPath>
</defs>
</svg>
