<svg width="20" height="20" viewBox="0 0 20 20" fill="none" xmlns="http://www.w3.org/2000/svg">
<g clip-path="url(#clip0_12249_3557)">
<path d="M10 10C11.3807 10 12.5 8.88071 12.5 7.5C12.5 6.11929 11.3807 5 10 5C8.61929 5 7.5 6.11929 7.5 7.5C7.5 8.88071 8.61929 10 10 10Z" stroke="#333333" stroke-width="1.5"/>
<path d="M10.0001 18.3332C14.6025 18.3332 18.3334 14.6022 18.3334 9.99984C18.3334 5.39746 14.6025 1.6665 10.0001 1.6665C5.39771 1.6665 1.66675 5.39746 1.66675 9.99984C1.66675 14.6022 5.39771 18.3332 10.0001 18.3332Z" stroke="#333333" stroke-width="1.5"/>
<path d="M14.9743 16.6667C14.8417 14.2571 14.1039 12.5 9.99992 12.5C5.89601 12.5 5.15826 14.2571 5.02563 16.6667" stroke="#333333" stroke-width="1.5" stroke-linecap="round"/>
</g>
<defs>
<clipPath id="clip0_12249_3557">
<rect width="20" height="20" fill="#333"/>
</clipPath>
</defs>
</svg>
