<svg width="51" height="17" viewBox="0 0 51 17" fill="none" xmlns="http://www.w3.org/2000/svg">
<path d="M26.3588 5.16191C26.3303 7.41103 28.3632 8.66621 29.8946 9.41241C31.4681 10.1781 31.9966 10.6691 31.9906 11.3537C31.9786 12.4017 30.7354 12.8642 29.5718 12.8822C27.5419 12.9137 26.3618 12.3342 25.4234 11.8957L24.6922 15.3175C25.6336 15.7514 27.3768 16.1297 29.1845 16.1462C33.4275 16.1462 36.2036 14.0518 36.2186 10.8042C36.2351 6.68285 30.5177 6.45463 30.5568 4.6124C30.5703 4.05387 31.1033 3.45781 32.2714 3.30617C32.8494 3.2296 34.4454 3.17104 36.2546 4.00433L36.9648 0.693715C35.9919 0.339382 34.7412 6.29425e-05 33.1842 6.29425e-05C29.1905 6.29425e-05 26.3813 2.12306 26.3588 5.16191ZM43.7887 0.285331C43.014 0.285331 42.3609 0.737256 42.0696 1.43091L36.0084 15.903H40.2484L41.0922 13.5713H46.2735L46.763 15.903H50.5L47.2389 0.285331H43.7887ZM44.3818 4.5043L45.6054 10.3688H42.2542L44.3818 4.5043ZM21.218 0.285331L17.8758 15.903H21.9161L25.2568 0.285331H21.218ZM15.2409 0.285331L11.0354 10.9153L9.3343 1.87683C9.13462 0.867879 8.34638 0.285331 7.47105 0.285331H0.59609L0.5 0.738757C1.91133 1.04504 3.51483 1.53901 4.48625 2.06751C5.08081 2.39031 5.25047 2.67257 5.44565 3.4398L8.66768 15.903H12.9377L19.4838 0.285331H15.2409Z" fill="url(#paint0_linear_12223_2167)"/>
<defs>
<linearGradient id="paint0_linear_12223_2167" x1="2299.21" y1="48.5383" x2="2345.94" y2="-1609.7" gradientUnits="userSpaceOnUse">
<stop stop-color="white"/>
<stop offset="1" stop-color="#254AA5"/>
</linearGradient>
</defs>
</svg>
