<svg width="26" height="20" viewBox="0 0 26 20" fill="none" xmlns="http://www.w3.org/2000/svg">
<path d="M24.25 0H1.75C1 0 0.5 0.5 0.5 1.25V18.75C0.5 19.5 1 20 1.75 20H24.25C25 20 25.5 19.5 25.5 18.75V12.5H16.75C15.375 12.5 14.25 11.375 14.25 10C14.25 8.625 15.375 7.5 16.75 7.5H25.5V1.25C25.5 0.5 25 0 24.25 0Z" fill="#FF5524"/>
<path d="M16.75 11.25C17.4404 11.25 18 10.6904 18 10C18 9.30964 17.4404 8.75 16.75 8.75C16.0596 8.75 15.5 9.30964 15.5 10C15.5 10.6904 16.0596 11.25 16.75 11.25Z" fill="#D17842"/>
</svg>
